<?xml version="1.0" encoding="UTF-8"?>
<svg version="1.1"
     viewBox="0 0 672.71 349.36"
     xmlns="http://www.w3.org/2000/svg">
  <g transform="matrix(1.3333 0 0 -1.3333 0 349.36)">
    <g transform="translate(351.7 181.6)">
      <path d="m0 0 1e-3 -36.265c-1e-3 -1.074 0.537-2.067 1.469-2.603l31.423-18.103c1.333-0.768 3.033 0.194 3.034 1.733v36.263c1e-3 1.075-0.573 2.068-1.504 2.605l-31.422 18.101c-1.334 0.769-2.999-0.193-3.001-1.731m96.784 28.316-45.238-26.062c-1.341-0.772-2.166-2.201-2.164-3.748v-52.209c2e-3 -2.216 2.448-3.6 4.368-2.494l45.239 26.061c1.34 0.773 2.115 2.202 2.114 3.749l1e-3 52.209c-2e-3 2.216-2.4 3.6-4.32 2.494m-62.057-111.04-12.573-7.243c-0.372-0.215-0.601-0.612-0.601-1.042l-1e-3 -14.509c0-0.616 0.681-1.001 1.215-0.693l12.572 7.243c0.373 0.214 0.589 0.612 0.588 1.041v14.51c0 0.615-0.667 1-1.2 0.693m-7.328 13.388-18.828 10.895c-0.557 0.322-1.246 0.322-1.803 0l-18.829-10.895c-0.798-0.462-0.798-1.615 0-2.078l18.829-10.894c0.557-0.323 1.246-0.323 1.803 0l18.828 10.894c0.799 0.463 0.799 1.616 0 2.078m30.312-1.964 8.365-4.84c0.495-0.287 1.107-0.287 1.603 0l8.365 4.84c0.71 0.411 0.71 1.437 0 1.848l-8.365 4.84c-0.496 0.287-1.108 0.287-1.603 0l-8.365-4.84c-0.71-0.411-0.71-1.437 0-1.848m-6.73-11.649 8.374-4.824c0.497-0.287 0.802-0.816 0.802-1.389l-0.01-9.664c-1e-3 -0.82-0.888-1.333-1.599-0.924l-8.374 4.824c-0.496 0.286-0.791 0.818-0.791 1.389l-1e-3 9.664c0 0.819 0.889 1.334 1.599 0.924"
            fill="#eb0037"/>
    </g>
    <g transform="translate(317.51 108.19)">
      <path d="m0 0c-0.333 0.832-1.04 1.136-1.83 0.665-0.79-0.47-15.638-9.316-15.638-9.316v8.152c0 0.915-0.583 1.248-1.414 0.915l-4.825-1.747c-0.665-0.249-0.915-0.748-0.915-1.414v-35.843c0-0.749 0.499-1.247 1.248-1.247h4.658c0.748 0 1.248 0.498 1.248 1.247v21.954s17.507 10.806 18.217 11.231c0.709 0.424 1.072 0.784 0.748 1.58-0.354 0.873-1.497 3.823-1.497 3.823"
            fill="#eb0037"/>
    </g>
    <g transform="translate(59.625 93.065)">
      <path d="m0 0c1.58 5.739 6.072 9.233 12.395 9.233 6.904 0 10.563-4.076 10.896-9.233zm30.861-2.163c0 9.982-6.821 18.384-18.217 18.384-11.23 0-20.546-8.07-20.546-21.212 0-11.979 7.819-20.712 20.962-20.712 5.989 0 11.978 2.079 16.47 6.072 0.582 0.499 0.582 1.164 0.166 1.747l-2.246 3.493c-0.416 0.665-1.081 0.748-1.746 0.249-4.076-2.994-8.235-4.491-12.644-4.491-8.402 0-12.977 5.49-13.559 12.394h30.13c0.77 0 1.23 0.558 1.23 1.231z"
            fill="#eb0037"/>
    </g>
    <g transform="translate(116.73 74.432)">
      <path d="m0 0c-7.07 0-13.143 4.824-13.143 13.975 0 9.15 6.073 13.891 13.143 13.891 7.403 0 13.143-4.741 13.143-13.891 0-9.234-5.74-13.975-13.143-13.975m14.308-22.709h4.658c0.748 0 1.247 0.499 1.247 1.248v54.733c0 0.916-0.582 1.249-1.497 0.916l-4.741-1.748c-0.665-0.249-0.915-0.748-0.915-1.414v-1.746c-2.579 3.493-7.654 5.574-13.143 5.574-10.897 0-20.38-8.153-20.38-20.962 0-11.314 7.32-20.962 19.964-20.962 5.739 0 11.229 2.578 13.559 5.489v-19.88c0-0.749 0.499-1.248 1.248-1.248"
            fill="#eb0037"/>
    </g>
    <g transform="translate(160.64 67.361)">
      <path d="m0 0c4.325 0 9.067 1.414 12.145 5.905v-3.66c0-0.748 0.499-1.247 1.248-1.247h4.658c0.749 0 1.247 0.499 1.247 1.247v38.015c0 0.998-0.582 1.331-1.414 0.998l-4.824-1.747c-0.665-0.249-0.915-0.748-0.915-1.414v-19.964c0-7.07-4.575-11.063-10.814-11.063-6.155 0-10.314 3.909-10.314 11.063v22.21c0 0.915-0.583 1.248-1.414 0.915l-4.825-1.747c-0.666-0.249-0.916-0.748-0.916-1.414v-20.213c0-11.812 7.155-17.884 16.138-17.884"
            fill="#eb0037"/>
    </g>
    <g transform="translate(189.67 112.86)">
      <path d="m0 0 5.074 1.664c0.831 0.25 1.164 0.666 1.164 1.497v6.072c0 0.749-0.582 1.331-1.497 0.998l-4.991-1.83c-0.748-0.249-1.164-0.582-1.164-1.413v-5.823c0-0.915 0.499-1.497 1.414-1.165"
            fill="#eb0037"/>
    </g>
    <g transform="translate(189.75 68.36)">
      <path d="m0 0h4.658c0.748 0 1.248 0.499 1.248 1.247v38.098c0 0.915-0.583 1.248-1.414 0.915l-4.825-1.747c-0.665-0.249-0.915-0.748-0.915-1.414v-35.852c0-0.748 0.499-1.247 1.248-1.247"
            fill="#eb0037"/>
    </g>
    <g transform="translate(205.47 68.36)">
      <path d="m0 0h4.658c0.749 0 1.248 0.499 1.248 1.247v21.545c0 7.07 4.575 11.063 10.814 11.063 6.155 0 10.314-3.91 10.314-11.063v-21.545c0-0.748 0.499-1.247 1.248-1.247h4.658c0.748 0 1.248 0.499 1.248 1.247v21.794c0 11.813-7.154 17.885-16.137 17.885-4.325 0-9.067-1.414-12.145-5.906v4.325c0 0.915-0.582 1.248-1.414 0.915l-4.825-1.747c-0.665-0.249-0.914-0.748-0.914-1.414v-35.852c0-0.748 0.498-1.247 1.247-1.247"
            fill="#eb0037"/>
    </g>
    <g transform="translate(266.31 74.349)">
      <path d="m0 0c-8.235 0-13.226 6.155-13.226 13.975 0 7.819 4.991 13.974 13.226 13.974 8.151 0 13.143-6.155 13.143-13.974 0-7.82-4.992-13.975-13.143-13.975m0 34.937c-11.979 0-20.546-8.901-20.546-20.962 0-12.062 8.567-20.962 20.546-20.962s20.463 8.9 20.463 20.962c0 12.061-8.484 20.962-20.463 20.962"
            fill="#eb0037"/>
    </g>
  </g>
</svg>
